<svg width="24" height="24" viewBox="0 0 24 24" fill="none" xmlns="http://www.w3.org/2000/svg">
<g clip-path="url(#clip0)">
<path fill-rule="evenodd" clip-rule="evenodd" d="M22.3827 6.00945C23.3465 7.67817 22.5585 9.86627 20.7797 12.0065C20.9281 12.1868 21.0706 12.3684 21.2063 12.5512C24.6355 17.174 22.2354 20.603 16.3843 19.6247C15.4178 22.2302 13.9161 24 11.996 24C10.1184 24 8.59209 22.2516 7.60603 19.6117C1.70059 20.5895 -0.610071 17.1289 2.78569 12.5512C2.92137 12.3684 3.06403 12.1868 3.21255 12.0063L3.2125 12.0063C1.80497 10.2987 0.521413 7.89312 1.60928 6.00945C2.67742 4.15891 5.29664 4.02482 7.60275 4.40272L7.60425 4.39967C9.79919 -1.46197 14.192 -1.47213 16.3889 4.40263C18.7031 4.02295 21.3161 4.16144 22.3827 6.00945ZM15.7381 16.3067C15.129 16.6939 14.4988 17.0599 13.8552 17.3986C14.3684 17.5798 14.878 17.7364 15.3792 17.8657C15.5185 17.3655 15.6381 16.8438 15.7381 16.3067ZM7.97985 14.325C9.22963 15.2118 10.6025 16.0042 11.996 16.6434C13.3893 16.004 14.7623 15.2112 16.0123 14.3243C16.1553 12.7992 16.1554 11.2147 16.0124 9.6895C14.7658 8.80464 13.3934 8.01057 11.9967 7.36924C10.6045 8.00748 9.23118 8.79935 7.9799 9.68697C7.83673 11.2132 7.83668 12.7988 7.97985 14.325ZM8.61308 17.8665C9.11424 17.7372 9.62416 17.5804 10.1375 17.3991C9.50591 17.0675 8.87456 16.7038 8.25491 16.312C8.3548 16.8475 8.47412 17.3677 8.61308 17.8665ZM5.22992 12.0062C5.59226 12.3756 5.9829 12.7388 6.39645 13.0927C6.36722 12.3784 6.36642 11.6516 6.39598 10.9197C5.98286 11.2733 5.5924 11.6364 5.22992 12.0062ZM8.61294 6.14649C8.47413 6.64498 8.3548 7.16483 8.25501 7.70005C8.86861 7.31208 9.4994 6.94847 10.1382 6.61364C9.62529 6.43256 9.11527 6.27584 8.61294 6.14649ZM15.3793 6.14719C14.8783 6.27645 14.3686 6.43326 13.855 6.61457C14.493 6.94899 15.1235 7.31227 15.737 7.7001C15.6373 7.16516 15.518 6.64549 15.3793 6.14719ZM18.7617 12.0068C18.4007 11.6392 18.0109 11.2771 17.5977 10.9235C17.6262 11.6486 17.6246 12.3752 17.594 13.0941C18.008 12.7398 18.399 12.3764 18.7617 12.0068ZM19.7598 10.8821C21.1103 9.17827 21.5961 7.64542 21.0845 6.75906C20.4538 5.66623 18.517 5.64421 17.2446 5.79207C17.1145 5.80711 16.9831 5.82472 16.8507 5.84449C17.114 6.81078 17.307 7.82889 17.4337 8.86943C18.2747 9.50135 19.06 10.1768 19.7598 10.8821ZM14.904 4.72107C14.1043 2.699 13.0192 1.51182 11.996 1.51182C10.9728 1.51182 9.88774 2.699 9.08801 4.72107C10.0313 4.96966 11.0117 5.31171 11.9957 5.73121C12.9783 5.31232 13.9587 4.97017 14.904 4.72107ZM6.74736 5.79207C5.475 5.64421 3.5383 5.66623 2.9075 6.75906C2.39594 7.64547 2.88174 9.17837 4.23234 10.8823C4.93303 10.1763 5.71998 9.49924 6.56371 8.86559C6.71752 7.62354 6.94146 6.59827 7.14231 5.84463C7.00972 5.82486 6.87793 5.80715 6.74736 5.79207ZM2.9075 17.2535C3.5895 18.4351 5.78529 18.3698 7.14137 18.1685L7.14442 18.1681C6.88922 17.2282 6.69325 16.2116 6.56291 15.1463C5.72813 14.5196 4.94015 13.8438 4.23243 13.1302C2.88174 14.8342 2.3959 16.3671 2.9075 17.2535ZM9.08801 19.2915C9.88774 21.3136 10.9728 22.5008 11.996 22.5008C13.0178 22.5008 14.1013 21.3168 14.9007 19.2997C13.9957 19.0575 13.0255 18.7219 11.9965 18.2835C11.0316 18.6948 10.0542 19.037 9.08801 19.2915ZM17.2447 18.2205C18.5115 18.3678 20.4524 18.3488 21.0845 17.2535C21.5961 16.3671 21.1103 14.8342 19.7596 13.1302L19.7559 13.1257C19.0634 13.8192 18.2779 14.4966 17.4266 15.1379C17.2966 16.1985 17.1019 17.2195 16.8466 18.1676C16.9804 18.1875 17.1131 18.2054 17.2447 18.2205ZM14 12C14 13.1046 13.1046 14 12 14C10.8954 14 10 13.1046 10 12C10 10.8954 10.8954 10 12 10C13.1046 10 14 10.8954 14 12Z" fill="#515970"/>
</g>
<defs>
<clipPath id="clip0">
<rect width="24" height="24" fill="white"/>
</clipPath>
</defs>
</svg>
