<svg width="24" height="24" viewBox="0 0 24 24" fill="none" xmlns="http://www.w3.org/2000/svg">
<g clip-path="url(#clip0)">
<path fill-rule="evenodd" clip-rule="evenodd" d="M10.0978 6.16707C13.4798 2.36807 18.8228 -0.0809288 23.5078 0.00307121C23.7748 0.0100712 23.9898 0.225071 23.9968 0.491071C24.1058 5.17007 21.6368 10.5111 17.8338 13.9001C17.7728 17.1321 16.4478 20.2791 14.1628 22.5641C14.0628 22.6631 13.9178 22.7251 13.7758 22.7251C13.7268 22.7251 13.6788 22.7181 13.6328 22.7031C13.4538 22.6431 13.3058 22.5051 13.2788 22.3171L12.7268 18.4631L12.1938 18.9391C12.0988 19.0241 11.9798 19.0661 11.8608 19.0661C11.7318 19.0661 11.6038 19.0171 11.5068 18.9201L5.07977 12.4931C4.89177 12.3051 4.88277 12.0041 5.05977 11.8061L5.53577 11.2731L1.68177 10.7211C1.49377 10.6941 1.33777 10.5631 1.27777 10.3821C1.21877 10.2021 1.26677 10.0031 1.40177 9.87007C3.71877 7.55307 6.86576 6.22807 10.0978 6.16707ZM17.1318 9.36607C17.7728 9.36607 18.4128 9.12207 18.8998 8.63507C19.8748 7.66107 19.8748 6.07407 18.8998 5.09907C17.9248 4.12407 16.3388 4.12407 15.3638 5.09907C14.3898 6.07407 14.3898 7.66007 15.3638 8.63507C15.8508 9.12207 16.4908 9.36607 17.1318 9.36607ZM0.0210574 23.3561C0.185057 22.8091 1.65406 17.9751 2.72406 16.9051C3.92906 15.7011 5.88906 15.7001 7.09506 16.9051C8.30006 18.1101 8.30006 20.0711 7.09506 21.2761C6.02506 22.3461 1.19106 23.8151 0.644057 23.9791C0.596057 23.9931 0.548057 24.0001 0.500057 24.0001C0.369057 24.0001 0.242057 23.9491 0.146057 23.8531C0.0170574 23.7231 -0.0319426 23.5321 0.0210574 23.3561Z" fill="#515970"/>
</g>
<defs>
<clipPath id="clip0">
<rect width="24" height="24" fill="white"/>
</clipPath>
</defs>
</svg>
