<svg width="24" height="24" viewBox="0 0 24 24" fill="none" xmlns="http://www.w3.org/2000/svg">
<path fill-rule="evenodd" clip-rule="evenodd" d="M12 0C11.4477 0 11 0.447715 11 1V1.04484C5.72286 1.52039 1.52039 5.72286 1.04484 11H1C0.447715 11 0 11.4477 0 12C0 12.5523 0.447715 13 1 13H1.04484C1.55007 18.6065 6.26196 23 12 23C17.738 23 22.4499 18.6065 22.9552 13H23C23.5523 13 24 12.5523 24 12C24 11.4477 23.5523 11 23 11H22.9552C22.4796 5.72286 18.2771 1.52039 13 1.04484V1C13 0.447715 12.5523 0 12 0ZM11 3.05493V4C11 4.55228 11.4477 5 12 5C12.5523 5 13 4.55228 13 4V3.05493C17.1716 3.51608 20.4839 6.82838 20.9451 11H20C19.4477 11 19 11.4477 19 12C19 12.5523 19.4477 13 20 13H20.9451C20.7729 14.5572 20.2035 15.9947 19.3403 17.2089C17.5137 15.2354 14.9011 14 11.9999 14C9.09882 14 6.48626 15.2354 4.6596 17.2088C3.79649 15.9947 3.22707 14.5572 3.05493 13H4C4.55228 13 5 12.5523 5 12C5 11.4477 4.55228 11 4 11H3.05493C3.51608 6.82838 6.82838 3.51608 11 3.05493ZM15 10C15 11.6569 13.6569 13 12 13C10.3431 13 9 11.6569 9 10C9 8.34315 10.3431 7 12 7C13.6569 7 15 8.34315 15 10Z" fill="#515970"/>
</svg>
