<svg width="24" height="24" viewBox="0 0 24 24" fill="none" xmlns="http://www.w3.org/2000/svg">
<path d="M16.9964 20.5V21.5C16.9964 21.6326 16.9438 21.7598 16.85 21.8536C16.7563 21.9473 16.6291 22 16.4965 22H7.49858C7.36601 22 7.23886 21.9473 7.14511 21.8536C7.05136 21.7598 6.9987 21.6326 6.9987 21.5V20.5C6.9987 20.3674 7.05136 20.2402 7.14511 20.1465C7.23886 20.0527 7.36601 20 7.49858 20H10.9978V15.26L11.0778 15.17C11.1926 15.0388 11.3339 14.9335 11.4925 14.8611C11.6511 14.7887 11.8232 14.7508 11.9976 14.75C12.3086 14.7525 12.6078 14.8701 12.8374 15.08L12.9973 15.21V20H16.4965C16.6291 20 16.7563 20.0527 16.85 20.1465C16.9438 20.2402 16.9964 20.3674 16.9964 20.5ZM22.9951 13.45L21.4953 2.90001C21.4705 2.65249 21.3542 2.42312 21.1694 2.25671C20.9845 2.09029 20.7443 1.99877 20.4956 2.00001H3.49943C3.25072 1.99877 3.01047 2.09029 2.82561 2.25671C2.64074 2.42312 2.52453 2.65249 2.49966 2.90001L1.00006 13.45C0.993057 13.5198 1.00079 13.5902 1.02275 13.6567C1.04471 13.7233 1.08042 13.7845 1.12756 13.8364C1.1747 13.8882 1.23221 13.9296 1.29636 13.9578C1.36051 13.986 1.42988 14.0004 1.49995 14H3.81942C3.92247 13.9989 4.02424 13.977 4.1187 13.9358C4.21315 13.8946 4.29837 13.8348 4.3693 13.76C4.87433 13.2623 5.55487 12.9833 6.26386 12.9833C6.97286 12.9833 7.6534 13.2623 8.15843 13.76C8.29971 13.8921 8.48499 13.9669 8.67832 13.97H9.46813C9.65742 13.971 9.83989 13.8995 9.97802 13.77C10.5279 13.2781 11.2398 13.0061 11.9776 13.0061C12.7153 13.0061 13.4272 13.2781 13.9771 13.77C14.1152 13.8995 14.2977 13.971 14.487 13.97H15.2768C15.4701 13.9669 15.6554 13.8921 15.7967 13.76C16.3017 13.2623 16.9823 12.9833 17.6913 12.9833C18.4003 12.9833 19.0808 13.2623 19.5858 13.76C19.6568 13.8348 19.742 13.8946 19.8364 13.9358C19.9309 13.977 20.0327 13.9989 20.1357 14H22.4952C22.5652 14.0004 22.6346 13.986 22.6988 13.9578C22.7629 13.9296 22.8204 13.8882 22.8676 13.8364C22.9147 13.7845 22.9504 13.7233 22.9724 13.6567C22.9943 13.5902 23.0021 13.5198 22.9951 13.45Z" fill="#515970"/>
</svg>
