<svg width="24" height="24" viewBox="0 0 24 24" fill="none" xmlns="http://www.w3.org/2000/svg">
    <path d="M22.6692 10.0816L12.7467 1.24843C12.3057 0.917189 11.7545 0.917189 11.3135 1.24843L1.39099 10.0816C0.94999 10.5232 0.83974 11.1857 1.28074 11.6274C1.72174 12.069 2.38324 12.1794 2.82424 11.7378L3.15499 11.2961V21.8959C3.15499 22.5583 3.59599 23 4.25749 23H19.6925C20.354 23 20.795 22.5583 20.795 21.8959V11.2961L21.1257 11.6274C21.5667 12.069 22.2282 11.9586 22.6692 11.5169C23.1103 11.1857 23.1103 10.4128 22.6692 10.0816ZM14.18 15.271H13.0775V16.3752C13.0775 17.0376 12.6365 17.4793 11.975 17.4793C11.3135 17.4793 10.8725 17.0376 10.8725 16.3752V15.271H9.76999C9.10849 15.271 8.66749 14.8294 8.66749 14.1669C8.66749 13.5044 9.10849 13.0627 9.76999 13.0627H10.8725V11.9586C10.8725 11.2961 11.3135 10.8545 11.975 10.8545C12.6365 10.8545 13.0775 11.2961 13.0775 11.9586V13.0627H14.18C14.8415 13.0627 15.2825 13.5044 15.2825 14.1669C15.2825 14.8294 14.8415 15.271 14.18 15.271Z" fill="#515970"/>
</svg>
